# xmcd
#
# Track frame offsets: 
#        150
#        19620
#        35550
#        53820
#        73920
#        90750
#        108412
#        124020
#        142402
#        159367
#
# Disc length: 2389 seconds
#
# Revision: 0
# Processed by: cddbd v1.5.2PL0 Copyright (c) Steve Scherf et al.
# Submitted via: ExactAudioCopy v1.0b4
#
DISCID=8309530a
DTITLE=Tangerine - Tangerine
DYEAR=1998
DGENRE=Pop
TTITLE0=Huwag na huwag
TTITLE1=So it's you
TTITLE2=Sure
TTITLE3=Hanggang pangarap lang
TTITLE4=Sana
TTITLE5=What's that you're doin'
TTITLE6=Your love
TTITLE7=Bakit siya na
TTITLE8=Whatcha gonna lose
TTITLE9=Never gonna fall in love again
EXTD=
EXTT0=
EXTT1=
EXTT2=
EXTT3=
EXTT4=
EXTT5=
EXTT6=
EXTT7=
EXTT8=
EXTT9=
PLAYORDER=
